<svg width="154" height="32" viewBox="0 0 154 32" fill="none" xmlns="http://www.w3.org/2000/svg">
  
  <!-- КВАДРАТ С ЛОГО ПОГОДЫ -->
  <g transform="translate(0,0)">
    <rect width="32" height="32" rx="8" fill="#4FA3E3"/>
    
    <!-- Солнце -->
    <circle cx="15" cy="14" r="7" fill="#FFD43B"/>

    <!-- Лучи -->
    <g stroke="#FFD43B" stroke-width="2" stroke-linecap="round">
      <line x1="15" y1="4" x2="15" y2="1.5"/>
      <line x1="15" y1="26.5" x2="15" y2="24"/>
      <line x1="7.5" y1="7.5" x2="5.7" y2="5.7"/>
      <line x1="22.5" y1="7.5" x2="24.3" y2="5.7"/>
    </g>

    <!-- Облако -->
    <path d="M22.5 16c-2 0-3 1-3.4 2 -0.4-0.5-1.2-1.1-2.3-1.1 -2.1 0-3.7 1.6-3.7 3.6S14.8 24 16.8 24h6.2c2.1 0 3.7-1.6 3.7-3.6S24.6 16 22.5 16z"
          fill="white"/>
  </g>

  <!-- ТЕКСТ -->
  <text x="45" y="21"
        font-size="17"
        font-family="Inter, Arial, sans-serif"
        font-weight="600"
        fill="white">
    Weather
  </text>

</svg>